<?xml version="1.0" encoding="UTF-8"?>
<svg xmlns="http://www.w3.org/2000/svg" xmlns:xlink="http://www.w3.org/1999/xlink" width="16px" height="16px" viewBox="0 0 16 16" version="1.1">
<g id="surface1">
<path style=" stroke:none;fill-rule:nonzero;fill:rgb(0%,0%,0%);fill-opacity:1;" d="M 7.578125 0.207031 C 5.925781 0.335938 4.539062 0.84375 3.285156 1.789062 C 2.480469 2.398438 1.703125 3.296875 1.195312 4.210938 C 0.191406 6 -0.0507812 8.179688 0.535156 10.183594 C 1.15625 12.320312 2.785156 14.179688 4.8125 15.082031 C 5.960938 15.585938 6.925781 15.773438 8.226562 15.742188 C 9.476562 15.707031 10.433594 15.46875 11.515625 14.921875 C 12.261719 14.542969 12.875 14.097656 13.5 13.472656 C 14.726562 12.242188 15.476562 10.722656 15.726562 8.96875 C 15.777344 8.578125 15.777344 7.355469 15.722656 6.984375 C 15.445312 5.128906 14.679688 3.617188 13.367188 2.355469 C 12.179688 1.214844 10.648438 0.476562 9.03125 0.269531 C 8.660156 0.21875 7.851562 0.183594 7.578125 0.207031 Z M 8.75 1.660156 C 10.921875 1.929688 12.765625 3.242188 13.714844 5.195312 C 14.085938 5.960938 14.273438 6.648438 14.347656 7.523438 C 14.480469 9.117188 13.9375 10.800781 12.875 12.070312 C 11.675781 13.507812 9.886719 14.34375 8 14.34375 C 5.867188 14.34375 3.882812 13.277344 2.683594 11.484375 C 1.933594 10.367188 1.539062 8.851562 1.652344 7.523438 C 1.726562 6.648438 1.914062 5.953125 2.28125 5.195312 C 3.230469 3.257812 5.074219 1.933594 7.21875 1.660156 C 7.519531 1.621094 8.445312 1.617188 8.75 1.660156 Z M 8.75 1.660156 "/>
<path style=" stroke:none;fill-rule:nonzero;fill:rgb(0%,0%,0%);fill-opacity:1;" d="M 5.960938 4.152344 C 5.621094 4.261719 5.371094 4.464844 5.175781 4.792969 C 4.960938 5.148438 4.964844 5.113281 4.976562 8.078125 L 4.984375 10.734375 L 5.054688 10.921875 C 5.207031 11.320312 5.507812 11.632812 5.898438 11.785156 C 6.148438 11.882812 6.570312 11.882812 6.816406 11.789062 C 6.914062 11.75 7.261719 11.539062 7.597656 11.320312 C 7.929688 11.101562 8.800781 10.527344 9.53125 10.050781 C 10.269531 9.566406 10.933594 9.105469 11.023438 9.019531 C 11.230469 8.820312 11.390625 8.503906 11.441406 8.199219 C 11.507812 7.769531 11.351562 7.273438 11.042969 6.960938 C 10.820312 6.734375 7.039062 4.257812 6.78125 4.164062 C 6.527344 4.078125 6.210938 4.074219 5.960938 4.152344 Z M 8.210938 6.753906 C 9.203125 7.40625 10.027344 7.953125 10.039062 7.964844 C 10.054688 7.980469 9.867188 8.121094 9.617188 8.285156 C 9.371094 8.445312 8.554688 8.980469 7.800781 9.476562 C 7.042969 9.976562 6.410156 10.386719 6.382812 10.398438 C 6.351562 10.410156 6.34375 9.988281 6.34375 7.988281 C 6.34375 6.558594 6.355469 5.5625 6.371094 5.5625 C 6.386719 5.5625 7.210938 6.097656 8.210938 6.753906 Z M 8.210938 6.753906 "/>
</g>
</svg>
