<?xml version="1.0" encoding="UTF-8"?>
<svg xmlns="http://www.w3.org/2000/svg" xmlns:xlink="http://www.w3.org/1999/xlink" width="16px" height="16px" viewBox="0 0 16 16" version="1.1">
<g id="surface1">
<path style=" stroke:none;fill-rule:nonzero;fill:rgb(0%,0%,0%);fill-opacity:1;" d="M 6.617188 0.121094 C 4.734375 0.480469 2.945312 1.535156 1.792969 2.984375 C 1.136719 3.800781 0.464844 5.152344 0.222656 6.121094 C -0.03125 7.144531 -0.03125 8.855469 0.222656 9.878906 C 0.625 11.480469 1.71875 13.199219 2.984375 14.207031 C 3.800781 14.863281 5.152344 15.535156 6.121094 15.777344 C 7.144531 16.03125 8.855469 16.03125 9.878906 15.777344 C 11.480469 15.375 13.167969 14.296875 14.199219 13.015625 C 14.855469 12.199219 15.527344 10.863281 15.777344 9.878906 C 16.03125 8.855469 16.03125 7.144531 15.777344 6.121094 C 15.375 4.519531 14.28125 2.800781 13.007812 1.785156 C 12.207031 1.152344 10.839844 0.464844 9.921875 0.238281 C 9.015625 0.015625 7.464844 -0.0390625 6.617188 0.121094 Z M 9.136719 1.710938 C 10.40625 1.960938 11.425781 2.480469 12.375 3.382812 C 15.0625 5.945312 15.0625 10.054688 12.375 12.617188 C 10.550781 14.34375 8.070312 14.847656 5.726562 13.96875 C 4.953125 13.671875 4.296875 13.257812 3.625 12.617188 C 1.414062 10.519531 0.976562 7.289062 2.535156 4.6875 C 2.9375 4.015625 3.929688 3.015625 4.601562 2.601562 C 5.976562 1.742188 7.617188 1.425781 9.136719 1.710938 Z M 9.136719 1.710938 "/>
<path style=" stroke:none;fill-rule:nonzero;fill:rgb(0%,0%,0%);fill-opacity:1;" d="M 5.199219 4.902344 C 4.808594 5.105469 4.800781 5.199219 4.816406 8.097656 C 4.839844 10.785156 4.839844 10.800781 5.023438 10.976562 L 5.207031 11.160156 L 10.792969 11.160156 L 11.160156 10.792969 L 11.160156 5.207031 L 10.976562 5.023438 C 10.800781 4.839844 10.785156 4.839844 8.097656 4.816406 C 6.03125 4.800781 5.351562 4.824219 5.199219 4.902344 Z M 5.199219 4.902344 "/>
</g>
</svg>
