<?xml version="1.0" encoding="UTF-8"?>
<svg xmlns="http://www.w3.org/2000/svg" xmlns:xlink="http://www.w3.org/1999/xlink" width="16px" height="16px" viewBox="0 0 16 16" version="1.1">
<g id="surface1">
<path style=" stroke:none;fill-rule:nonzero;fill:rgb(0%,0%,0%);fill-opacity:1;" d="M 8.21875 2.433594 C 8.167969 2.453125 7.328125 3.164062 6.34375 4.015625 L 4.558594 5.566406 L 2.871094 5.566406 C 1.519531 5.566406 1.160156 5.578125 1.078125 5.613281 C 0.945312 5.667969 0.8125 5.824219 0.769531 5.976562 C 0.722656 6.148438 0.722656 10.152344 0.769531 10.320312 C 0.816406 10.480469 0.976562 10.640625 1.136719 10.683594 C 1.222656 10.707031 1.808594 10.71875 2.886719 10.71875 L 4.507812 10.71875 L 6.320312 12.289062 C 7.65625 13.441406 8.164062 13.863281 8.253906 13.890625 C 8.488281 13.960938 8.753906 13.847656 8.871094 13.632812 C 8.929688 13.523438 8.929688 13.332031 8.921875 8.128906 L 8.910156 2.734375 L 8.835938 2.628906 C 8.703125 2.441406 8.433594 2.359375 8.21875 2.433594 Z M 8.21875 2.433594 "/>
<path style=" stroke:none;fill-rule:nonzero;fill:rgb(0%,0%,0%);fill-opacity:1;" d="M 12.929688 2.5 C 12.816406 2.542969 12.738281 2.621094 12.664062 2.765625 C 12.570312 2.949219 12.601562 3.128906 12.765625 3.355469 C 13.710938 4.664062 14.15625 5.71875 14.371094 7.183594 C 14.433594 7.609375 14.429688 8.789062 14.359375 9.25 C 14.160156 10.574219 13.636719 11.824219 12.847656 12.863281 C 12.585938 13.207031 12.554688 13.355469 12.679688 13.601562 C 12.734375 13.695312 12.800781 13.761719 12.894531 13.8125 C 13.183594 13.96875 13.40625 13.882812 13.6875 13.515625 C 14.707031 12.167969 15.28125 10.683594 15.460938 8.964844 C 15.511719 8.453125 15.476562 7.363281 15.394531 6.847656 C 15.230469 5.832031 14.957031 4.992188 14.496094 4.105469 C 14.144531 3.425781 13.605469 2.652344 13.398438 2.527344 C 13.285156 2.457031 13.0625 2.445312 12.929688 2.5 Z M 12.929688 2.5 "/>
<path style=" stroke:none;fill-rule:nonzero;fill:rgb(0%,0%,0%);fill-opacity:1;" d="M 11.519531 3.910156 C 11.324219 4.011719 11.253906 4.121094 11.238281 4.34375 C 11.226562 4.523438 11.230469 4.53125 11.457031 4.878906 C 12.363281 6.261719 12.671875 7.832031 12.335938 9.390625 C 12.1875 10.089844 11.875 10.839844 11.507812 11.390625 C 11.265625 11.746094 11.230469 11.8125 11.230469 11.96875 C 11.230469 12.316406 11.550781 12.566406 11.882812 12.476562 C 12.058594 12.433594 12.226562 12.253906 12.464844 11.867188 C 13.039062 10.9375 13.398438 9.886719 13.5 8.820312 C 13.652344 7.273438 13.25 5.667969 12.386719 4.363281 C 12.171875 4.039062 12.109375 3.964844 11.992188 3.90625 C 11.8125 3.820312 11.695312 3.820312 11.519531 3.910156 Z M 11.519531 3.910156 "/>
<path style=" stroke:none;fill-rule:nonzero;fill:rgb(0%,0%,0%);fill-opacity:1;" d="M 10.0625 5.390625 C 9.902344 5.449219 9.773438 5.589844 9.726562 5.757812 C 9.683594 5.925781 9.707031 6.015625 9.875 6.304688 C 10.421875 7.253906 10.535156 8.335938 10.1875 9.351562 C 10.148438 9.476562 10.023438 9.742188 9.914062 9.949219 C 9.757812 10.246094 9.71875 10.347656 9.714844 10.46875 C 9.714844 10.855469 10.136719 11.09375 10.496094 10.910156 C 10.78125 10.765625 11.214844 9.832031 11.378906 9.007812 C 11.425781 8.792969 11.4375 8.574219 11.4375 8.160156 C 11.4375 7.558594 11.378906 7.195312 11.210938 6.6875 C 11.117188 6.394531 10.824219 5.792969 10.691406 5.609375 C 10.53125 5.390625 10.292969 5.304688 10.0625 5.390625 Z M 10.0625 5.390625 "/>
</g>
</svg>
